<svg width="138" height="24" viewBox="0 0 138 24" fill="none" xmlns="http://www.w3.org/2000/svg">
<rect opacity="0.2" y="4" width="1" height="16" fill="white"/>
<g opacity="0.12">
<path d="M22.5 9C22.5 5.68629 24.6863 3 28 3H30C33.3137 3 35.5 5.68629 35.5 9L36.5 18H21.5L22.5 9Z" fill="#FAFAFA"/>
<path d="M20 16.5C20 15.6716 20.6716 15 21.5 15H36.5C37.3284 15 38 15.6716 38 16.5C38 17.3284 37.3284 18 36.5 18H21.5C20.6716 18 20 17.3284 20 16.5Z" fill="#FAFAFA"/>
</g>
<path d="M28.2695 1.6875C28.2695 1.34375 28.6133 1 28.957 1C29.3438 1 29.6875 1.34375 29.6875 1.6875V2.41797C33.125 2.76172 35.875 5.68359 35.875 9.25V10.5391C35.875 12.3867 36.6055 14.1914 37.9375 15.5234L38.0664 15.6523C38.4102 15.9961 38.625 16.4688 38.625 16.9844C38.625 18.0586 37.7656 18.875 36.6914 18.875H21.2656C20.1914 18.875 19.375 18.0586 19.375 16.9844C19.375 16.4688 19.5469 15.9961 19.8906 15.6523L20.0195 15.5234C21.3516 14.1914 22.125 12.3867 22.125 10.5391V9.25C22.125 5.68359 24.832 2.76172 28.3125 2.41797L28.2695 1.6875ZM28.957 3.75C25.9492 3.75 23.457 6.24219 23.457 9.25V10.5391C23.457 12.7734 22.5977 14.9219 21.0078 16.5117L20.8789 16.5977C20.793 16.7266 20.707 16.8555 20.707 16.9844C20.707 17.2852 20.9648 17.5 21.2656 17.5H36.6914C36.9922 17.5 37.25 17.2852 37.25 16.9844C37.25 16.8555 37.1641 16.7266 37.0781 16.5977L36.9492 16.5117C35.3594 14.9219 34.5 12.7734 34.5 10.5391V9.25C34.5 6.24219 32.0078 3.75 28.957 3.75ZM28.957 21.625C29.5586 21.625 30.0742 21.2812 30.2891 20.7227C30.418 20.3789 30.8047 20.1641 31.1484 20.293C31.4922 20.4219 31.707 20.8086 31.5781 21.1953C31.1914 22.2695 30.1602 23 28.957 23C27.7969 23 26.7656 22.2695 26.3789 21.1953C26.25 20.8086 26.4648 20.4219 26.8086 20.293C27.1523 20.1641 27.5391 20.3789 27.668 20.7227C27.8828 21.2812 28.3984 21.625 28.957 21.625Z" fill="#FAFAFA"/>
<path d="M74.2422 1.62949C75.3164 0.512301 77.25 1.28574 77.25 2.83261V19.6334C77.25 21.1803 75.3164 21.9537 74.2422 20.8365L73.2539 19.7623C71.3633 17.7857 68.9141 16.5396 66.25 16.1959V20.4928C66.25 21.8248 65.1328 22.899 63.8438 22.899H63.1562C61.8242 22.899 60.75 21.8248 60.75 20.4928V16.024C59.2031 16.024 58 14.8209 58 13.274V9.14902C58 7.64511 59.2031 6.39902 60.75 6.39902H64.1445L65.3906 6.35605C68.3984 6.18418 71.1914 4.89511 73.2539 2.70371L74.2422 1.62949ZM75.875 2.83261C75.875 2.48886 75.4883 2.35996 75.2734 2.5748L74.2422 3.64902C72.4375 5.53964 70.1172 6.87168 67.625 7.43027V15.0357C70.1172 15.5943 72.4375 16.8834 74.2422 18.817L75.2734 19.8912C75.4883 20.1061 75.875 19.9342 75.875 19.6334V2.83261ZM66.25 14.8209V7.64511C65.9922 7.68808 65.7344 7.68808 65.4766 7.73105L64.1875 7.77402H60.75C59.9766 7.77402 59.375 8.41855 59.375 9.14902V13.274C59.375 14.0475 59.9766 14.649 60.75 14.649H64.1875L65.4766 14.735C65.7344 14.735 65.9922 14.7779 66.25 14.8209ZM62.125 16.024V20.4928C62.125 21.0943 62.5547 21.524 63.1562 21.524H63.8438C64.4023 21.524 64.875 21.0943 64.875 20.4928V16.067L64.1445 16.024H62.125ZM79.3125 9.14902C79.6562 9.14902 80 9.49277 80 9.83652V12.5865C80 12.9732 79.6562 13.274 79.3125 13.274C78.9258 13.274 78.625 12.9732 78.625 12.5865V9.83652C78.625 9.49277 78.9258 9.14902 79.3125 9.14902Z" fill="#FAFAFA"/>
<rect opacity="0.12" x="59" y="7" width="8" height="8" rx="1" fill="#FAFAFA"/>
<g opacity="0.12">
<path d="M106.207 14.8637C105.462 14.1373 105 13.1226 105 12C105 10.9135 105.433 9.92819 106.136 9.20733L101.929 5C98.0237 8.90524 98.0237 15.2369 101.929 19.1421L106.207 14.8637Z" fill="#FAFAFA"/>
<path d="M111.79 9.2784C112.535 10.0049 112.997 11.0195 112.997 12.1421C112.997 13.2286 112.564 14.2139 111.861 14.9348L116.068 19.1421C119.974 15.2369 119.974 8.90524 116.068 5L111.79 9.2784Z" fill="#FAFAFA"/>
</g>
<path d="M116.262 20.25C114.328 21.9688 111.75 23 109 23C106.207 23 103.629 21.9688 101.695 20.25C101.5 20.0764 100.92 19.4957 100.75 19.3047C99.0312 17.3711 98 14.793 98 12C98 9.25 99.0312 6.67188 100.75 4.73828C100.916 4.55187 101.535 3.93586 101.695 3.79297C103.629 2.07422 106.207 1 109 1C111.75 1 114.328 2.07422 116.262 3.79297C116.557 4.05539 116.713 4.1829 117.207 4.73828C118.926 6.67188 120 9.25 120 12C120 14.793 118.926 17.3711 117.207 19.3047C117.07 19.4593 116.5 20.0382 116.262 20.25ZM111.363 15.3945C110.676 15.8672 109.859 16.125 109 16.125C108.098 16.125 107.281 15.8672 106.594 15.3945L102.684 19.3047C104.359 20.7656 106.551 21.625 109 21.625C111.406 21.625 113.598 20.7656 115.273 19.3047L111.363 15.3945ZM118.625 12C118.625 9.59375 117.723 7.40234 116.262 5.72656L112.352 9.63672C112.824 10.3242 113.125 11.1406 113.125 12C113.125 12.9023 112.824 13.7188 112.352 14.4062L116.262 18.3164C117.723 16.6406 118.625 14.4492 118.625 12ZM109 2.375C106.551 2.375 104.359 3.27734 102.684 4.73828L106.594 8.64844C107.281 8.17578 108.098 7.875 109 7.875C109.859 7.875 110.676 8.17578 111.363 8.64844L115.273 4.73828C113.598 3.27734 111.406 2.375 109 2.375ZM105.605 14.4062C105.133 13.7188 104.875 12.9023 104.875 12C104.875 11.1406 105.133 10.3242 105.605 9.63672L101.695 5.72656C100.234 7.40234 99.375 9.59375 99.375 12C99.375 14.4492 100.234 16.6406 101.695 18.3164L105.605 14.4062ZM109 9.25C107.453 9.25 106.25 10.4961 106.25 12C106.25 13.5469 107.453 14.75 109 14.75C110.504 14.75 111.75 13.5469 111.75 12C111.75 10.4961 110.504 9.25 109 9.25Z" fill="#FAFAFA"/>
<rect opacity="0.2" x="137" y="4" width="1" height="16" fill="white"/>
</svg>
