<svg width="460" height="34" viewBox="0 0 460 34" fill="none" xmlns="http://www.w3.org/2000/svg">
<rect width="400" height="34" rx="8" fill="#1D2939"/>
<path opacity="0.12" d="M19.6667 22.3333C22.7963 22.3333 25.3333 19.7963 25.3333 16.6667C25.3333 13.5371 22.7963 11 19.6667 11C16.5371 11 14 13.5371 14 16.6667C14 19.7963 16.5371 22.3333 19.6667 22.3333Z" fill="#A4A7AE"/>
<path fill-rule="evenodd" clip-rule="evenodd" d="M19.6668 11.6667C16.9054 11.6667 14.6668 13.9053 14.6668 16.6667C14.6668 19.4281 16.9054 21.6667 19.6668 21.6667C21.0089 21.6667 22.2275 21.1379 23.1256 20.2774C23.1463 20.2486 23.1696 20.2211 23.1955 20.1953C23.2214 20.1694 23.2488 20.1461 23.2776 20.1254C24.1381 19.2273 24.6668 18.0087 24.6668 16.6667C24.6668 13.9053 22.4283 11.6667 19.6668 11.6667ZM24.5919 20.6489C25.4726 19.561 26.0002 18.1754 26.0002 16.6667C26.0002 13.1689 23.1646 10.3333 19.6668 10.3333C16.169 10.3333 13.3335 13.1689 13.3335 16.6667C13.3335 20.1645 16.169 23 19.6668 23C21.1756 23 22.5612 22.4724 23.6491 21.5917L25.5288 23.4714C25.7891 23.7318 26.2112 23.7318 26.4716 23.4714C26.7319 23.2111 26.7319 22.789 26.4716 22.5286L24.5919 20.6489Z" fill="#A4A7AE"/>
<path d="M37.4091 23V11.3636H41.3409C42.2538 11.3636 43 11.5284 43.5795 11.858C44.1629 12.1837 44.5947 12.625 44.875 13.1818C45.1553 13.7386 45.2955 14.3598 45.2955 15.0455C45.2955 15.7311 45.1553 16.3542 44.875 16.9148C44.5985 17.4754 44.1705 17.9223 43.5909 18.2557C43.0114 18.5852 42.2689 18.75 41.3636 18.75H38.5455V17.5H41.3182C41.9432 17.5 42.4451 17.392 42.8239 17.1761C43.2027 16.9602 43.4773 16.6686 43.6477 16.3011C43.822 15.9299 43.9091 15.5114 43.9091 15.0455C43.9091 14.5795 43.822 14.1629 43.6477 13.7955C43.4773 13.428 43.2008 13.1402 42.8182 12.9318C42.4356 12.7197 41.928 12.6136 41.2955 12.6136H38.8182V23H37.4091ZM50.9489 23.1818C50.108 23.1818 49.3826 22.9962 48.7727 22.625C48.1667 22.25 47.6989 21.7273 47.3693 21.0568C47.0436 20.3826 46.8807 19.5985 46.8807 18.7045C46.8807 17.8106 47.0436 17.0227 47.3693 16.3409C47.6989 15.6553 48.1572 15.1212 48.7443 14.7386C49.3352 14.3523 50.0246 14.1591 50.8125 14.1591C51.267 14.1591 51.7159 14.2348 52.1591 14.3864C52.6023 14.5379 53.0057 14.7841 53.3693 15.125C53.733 15.4621 54.0227 15.9091 54.2386 16.4659C54.4545 17.0227 54.5625 17.7083 54.5625 18.5227V19.0909H47.8352V17.9318H53.1989C53.1989 17.4394 53.1004 17 52.9034 16.6136C52.7102 16.2273 52.4337 15.9223 52.0739 15.6989C51.7178 15.4754 51.2973 15.3636 50.8125 15.3636C50.2784 15.3636 49.8163 15.4962 49.4261 15.7614C49.0398 16.0227 48.7424 16.3636 48.5341 16.7841C48.3258 17.2045 48.2216 17.6553 48.2216 18.1364V18.9091C48.2216 19.5682 48.3352 20.1269 48.5625 20.5852C48.7936 21.0398 49.1136 21.3864 49.5227 21.625C49.9318 21.8598 50.4072 21.9773 50.9489 21.9773C51.3011 21.9773 51.6193 21.928 51.9034 21.8295C52.1913 21.7273 52.4394 21.5758 52.6477 21.375C52.8561 21.1705 53.017 20.9167 53.1307 20.6136L54.4261 20.9773C54.2898 21.4167 54.0606 21.803 53.7386 22.1364C53.4167 22.4659 53.0189 22.7235 52.5455 22.9091C52.072 23.0909 51.5398 23.1818 50.9489 23.1818ZM62.7841 16.2273L61.5795 16.5682C61.5038 16.3674 61.392 16.1723 61.2443 15.983C61.1004 15.7898 60.9034 15.6307 60.6534 15.5057C60.4034 15.3807 60.0833 15.3182 59.6932 15.3182C59.1591 15.3182 58.714 15.4413 58.358 15.6875C58.0057 15.9299 57.8295 16.2386 57.8295 16.6136C57.8295 16.947 57.9508 17.2102 58.1932 17.4034C58.4356 17.5966 58.8144 17.7576 59.3295 17.8864L60.625 18.2045C61.4053 18.3939 61.9867 18.6837 62.3693 19.0739C62.7519 19.4602 62.9432 19.9583 62.9432 20.5682C62.9432 21.0682 62.7992 21.5152 62.5114 21.9091C62.2273 22.303 61.8295 22.6136 61.3182 22.8409C60.8068 23.0682 60.2121 23.1818 59.5341 23.1818C58.6439 23.1818 57.9072 22.9886 57.3239 22.6023C56.7405 22.2159 56.3712 21.6515 56.2159 20.9091L57.4886 20.5909C57.6098 21.0606 57.839 21.4129 58.1761 21.6477C58.517 21.8826 58.9621 22 59.5114 22C60.1364 22 60.6326 21.8674 61 21.6023C61.3712 21.3333 61.5568 21.0114 61.5568 20.6364C61.5568 20.3333 61.4508 20.0795 61.2386 19.875C61.0265 19.6667 60.7008 19.5114 60.2614 19.4091L58.8068 19.0682C58.0076 18.8788 57.4205 18.5852 57.0455 18.1875C56.6742 17.786 56.4886 17.2841 56.4886 16.6818C56.4886 16.1894 56.6269 15.7538 56.9034 15.375C57.1837 14.9962 57.5644 14.6989 58.0455 14.483C58.5303 14.267 59.0795 14.1591 59.6932 14.1591C60.5568 14.1591 61.2348 14.3485 61.7273 14.7273C62.2235 15.1061 62.5758 15.6061 62.7841 16.2273ZM70.9162 26.2727V21.6591H70.8026C70.7041 21.8182 70.5639 22.0189 70.3821 22.2614C70.2003 22.5 69.9408 22.714 69.6037 22.9034C69.2666 23.089 68.8177 23.1818 68.2571 23.1818C67.5298 23.1818 66.8878 22.9981 66.331 22.6307C65.7741 22.2595 65.3385 21.7367 65.0241 21.0625C64.7098 20.3845 64.5526 19.5833 64.5526 18.6591C64.5526 17.7424 64.7098 16.947 65.0241 16.2727C65.3385 15.5985 65.776 15.0777 66.3366 14.7102C66.8973 14.3428 67.545 14.1591 68.2798 14.1591C68.848 14.1591 69.2969 14.2538 69.6264 14.4432C69.9598 14.6288 70.2135 14.8409 70.3878 15.0795C70.5658 15.3144 70.7041 15.5076 70.8026 15.6591H70.9616V14.2727H72.2571V26.2727H70.9162ZM68.4389 21.9773C68.9768 21.9773 69.4313 21.8371 69.8026 21.5568C70.1738 21.2727 70.456 20.8807 70.6491 20.3807C70.8423 19.8769 70.9389 19.2955 70.9389 18.6364C70.9389 17.9848 70.8442 17.4148 70.6548 16.9261C70.4654 16.4337 70.1851 16.0511 69.8139 15.7784C69.4427 15.5019 68.9844 15.3636 68.4389 15.3636C67.8707 15.3636 67.3973 15.5095 67.0185 15.8011C66.6435 16.089 66.3613 16.4811 66.1719 16.9773C65.9863 17.4697 65.8935 18.0227 65.8935 18.6364C65.8935 19.2576 65.9882 19.822 66.1776 20.3295C66.3707 20.8333 66.6548 21.2348 67.0298 21.5341C67.4086 21.8295 67.8783 21.9773 68.4389 21.9773ZM80.2116 19.4318V14.2727H81.5526V23H80.2116V21.5227H80.1207C79.9162 21.9659 79.598 22.3428 79.1662 22.6534C78.7344 22.9602 78.1889 23.1136 77.5298 23.1136C76.9844 23.1136 76.4995 22.9943 76.0753 22.7557C75.651 22.5133 75.3177 22.1496 75.0753 21.6648C74.8329 21.1761 74.7116 20.5606 74.7116 19.8182V14.2727H76.0526V19.7273C76.0526 20.3636 76.2306 20.8712 76.5866 21.25C76.9465 21.6288 77.4048 21.8182 77.9616 21.8182C78.295 21.8182 78.634 21.733 78.9787 21.5625C79.3272 21.392 79.6188 21.1307 79.8537 20.7784C80.0923 20.4261 80.2116 19.9773 80.2116 19.4318ZM84.0085 23V14.2727H85.3494V23H84.0085ZM84.6903 12.8182C84.429 12.8182 84.2036 12.7292 84.0142 12.5511C83.8286 12.3731 83.7358 12.1591 83.7358 11.9091C83.7358 11.6591 83.8286 11.4451 84.0142 11.267C84.2036 11.089 84.429 11 84.6903 11C84.9517 11 85.1752 11.089 85.3608 11.267C85.5502 11.4451 85.6449 11.6591 85.6449 11.9091C85.6449 12.1591 85.5502 12.3731 85.3608 12.5511C85.1752 12.7292 84.9517 12.8182 84.6903 12.8182ZM93.9872 16.2273L92.7827 16.5682C92.7069 16.3674 92.5952 16.1723 92.4474 15.983C92.3035 15.7898 92.1065 15.6307 91.8565 15.5057C91.6065 15.3807 91.2865 15.3182 90.8963 15.3182C90.3622 15.3182 89.9171 15.4413 89.5611 15.6875C89.2088 15.9299 89.0327 16.2386 89.0327 16.6136C89.0327 16.947 89.1539 17.2102 89.3963 17.4034C89.6387 17.5966 90.0175 17.7576 90.5327 17.8864L91.8281 18.2045C92.6084 18.3939 93.1899 18.6837 93.5724 19.0739C93.955 19.4602 94.1463 19.9583 94.1463 20.5682C94.1463 21.0682 94.0024 21.5152 93.7145 21.9091C93.4304 22.303 93.0327 22.6136 92.5213 22.8409C92.0099 23.0682 91.4152 23.1818 90.7372 23.1818C89.8471 23.1818 89.1103 22.9886 88.527 22.6023C87.9437 22.2159 87.5743 21.6515 87.419 20.9091L88.6918 20.5909C88.813 21.0606 89.0421 21.4129 89.3793 21.6477C89.7202 21.8826 90.1652 22 90.7145 22C91.3395 22 91.8357 21.8674 92.2031 21.6023C92.5743 21.3333 92.7599 21.0114 92.7599 20.6364C92.7599 20.3333 92.6539 20.0795 92.4418 19.875C92.2296 19.6667 91.9039 19.5114 91.4645 19.4091L90.0099 19.0682C89.2107 18.8788 88.6236 18.5852 88.2486 18.1875C87.8774 17.786 87.6918 17.2841 87.6918 16.6818C87.6918 16.1894 87.83 15.7538 88.1065 15.375C88.3868 14.9962 88.7675 14.6989 89.2486 14.483C89.7334 14.267 90.2827 14.1591 90.8963 14.1591C91.7599 14.1591 92.438 14.3485 92.9304 14.7273C93.4266 15.1061 93.7789 15.6061 93.9872 16.2273ZM98.733 23.2045C98.1799 23.2045 97.678 23.1004 97.2273 22.892C96.7765 22.6799 96.4186 22.375 96.1534 21.9773C95.8883 21.5758 95.7557 21.0909 95.7557 20.5227C95.7557 20.0227 95.8542 19.6174 96.0511 19.3068C96.2481 18.9924 96.5114 18.7462 96.8409 18.5682C97.1705 18.3902 97.5341 18.2576 97.9318 18.1705C98.3333 18.0795 98.7367 18.0076 99.142 17.9545C99.6723 17.8864 100.102 17.8352 100.432 17.8011C100.765 17.7633 101.008 17.7008 101.159 17.6136C101.314 17.5265 101.392 17.375 101.392 17.1591V17.1136C101.392 16.553 101.239 16.1174 100.932 15.8068C100.629 15.4962 100.169 15.3409 99.5511 15.3409C98.911 15.3409 98.4091 15.4811 98.0455 15.7614C97.6818 16.0417 97.4261 16.3409 97.2784 16.6591L96.0057 16.2045C96.233 15.6742 96.536 15.2614 96.9148 14.9659C97.2973 14.6667 97.714 14.4583 98.1648 14.3409C98.6193 14.2197 99.0663 14.1591 99.5057 14.1591C99.786 14.1591 100.108 14.1932 100.472 14.2614C100.839 14.3258 101.193 14.4602 101.534 14.6648C101.879 14.8693 102.165 15.178 102.392 15.5909C102.619 16.0038 102.733 16.5568 102.733 17.25V23H101.392V21.8182H101.324C101.233 22.0076 101.081 22.2102 100.869 22.4261C100.657 22.642 100.375 22.8258 100.023 22.9773C99.6705 23.1288 99.2405 23.2045 98.733 23.2045ZM98.9375 22C99.4678 22 99.9148 21.8958 100.278 21.6875C100.646 21.4792 100.922 21.2102 101.108 20.8807C101.297 20.5511 101.392 20.2045 101.392 19.8409V18.6136C101.335 18.6818 101.21 18.7443 101.017 18.8011C100.828 18.8542 100.608 18.9015 100.358 18.9432C100.112 18.9811 99.8712 19.0152 99.6364 19.0455C99.4053 19.072 99.2178 19.0947 99.0739 19.1136C98.7254 19.1591 98.3996 19.233 98.0966 19.3352C97.7973 19.4337 97.5549 19.5833 97.3693 19.7841C97.1875 19.9811 97.0966 20.25 97.0966 20.5909C97.0966 21.0568 97.2689 21.4091 97.6136 21.6477C97.9621 21.8826 98.4034 22 98.9375 22ZM105.18 23V14.2727H106.476V15.5909H106.567C106.726 15.1591 107.014 14.8087 107.43 14.5398C107.847 14.2708 108.317 14.1364 108.839 14.1364C108.938 14.1364 109.061 14.1383 109.209 14.142C109.357 14.1458 109.468 14.1515 109.544 14.1591V15.5227C109.499 15.5114 109.394 15.4943 109.232 15.4716C109.072 15.4451 108.904 15.4318 108.726 15.4318C108.302 15.4318 107.923 15.5208 107.589 15.6989C107.26 15.8731 106.999 16.1155 106.805 16.4261C106.616 16.733 106.521 17.0833 106.521 17.4773V23H105.18Z" fill="#98A2B3"/>
<rect x="408.5" y="0.5" width="51" height="33" rx="5.5" fill="url(#paint0_linear_3356_48840)"/>
<rect x="408.5" y="0.5" width="51" height="33" rx="5.5" stroke="url(#paint1_linear_3356_48840)"/>
<path opacity="0.12" d="M444 17L439.779 18.9559C439.419 19.1103 439.11 19.4191 438.956 19.7794L437 24L435.044 19.7794C434.89 19.4191 434.581 19.1103 434.221 18.9559L430 17L434.221 15.0441C434.581 14.8897 434.89 14.5809 435.044 14.2206L437 10L438.956 14.2206C439.11 14.5809 439.419 14.8897 439.779 15.0441L444 17Z" fill="#FAFAFA"/>
<path d="M426.438 7.375C426.094 7.375 425.75 7.71875 425.75 8.0625V10.125H423.688C423.344 10.125 423 10.4688 423 10.8125C423 11.1992 423.344 11.5 423.688 11.5H425.75V13.5625C425.75 13.9492 426.094 14.25 426.438 14.25C426.824 14.25 427.125 13.9492 427.125 13.5625V11.5H429.188C429.574 11.5 429.875 11.1992 429.875 10.8125C429.875 10.4688 429.574 10.125 429.188 10.125H427.125V8.0625C427.125 7.71875 426.824 7.375 426.438 7.375ZM426.438 19.75C426.094 19.75 425.75 20.0938 425.75 20.4375V22.5H423.688C423.344 22.5 423 22.8438 423 23.1875C423 23.5742 423.344 23.875 423.688 23.875H425.75V25.9375C425.75 26.3242 426.094 26.625 426.438 26.625C426.824 26.625 427.125 26.3242 427.125 25.9375V23.875H429.188C429.574 23.875 429.875 23.5742 429.875 23.1875C429.875 22.8438 429.574 22.5 429.188 22.5H427.125V20.4375C427.125 20.0938 426.824 19.75 426.438 19.75ZM439.715 19.8359L444.613 17.6016C444.871 17.4727 445 17.2148 445 16.957C445 16.6992 444.871 16.4414 444.613 16.3125L439.715 14.0781L437.438 9.17969C437.352 8.92188 437.094 8.75 436.836 8.75C436.578 8.75 436.32 8.92188 436.191 9.17969L433.957 14.0781L429.059 16.3125C428.801 16.4414 428.629 16.6992 428.629 16.957C428.629 17.2148 428.801 17.4727 429.059 17.6016L433.957 19.8359L436.191 24.7344C436.32 24.9922 436.578 25.1641 436.836 25.1641C437.094 25.1641 437.352 24.9922 437.438 24.7344L439.715 19.8359ZM442.68 16.957L439.156 18.5898C438.855 18.7188 438.598 18.9766 438.469 19.2773L436.836 22.8008L435.203 19.2773C435.074 18.9766 434.816 18.7188 434.516 18.5898L430.992 16.957L434.516 15.3242C434.816 15.1953 435.074 14.9375 435.203 14.6367L436.836 11.1133L438.469 14.6367C438.598 14.9375 438.855 15.1953 439.156 15.3242L442.68 16.957Z" fill="#FAFAFA"/>
<defs>
<linearGradient id="paint0_linear_3356_48840" x1="427.057" y1="10.8182" x2="463.844" y2="71.4924" gradientUnits="userSpaceOnUse">
<stop stop-color="#202939"/>
<stop offset="1" stop-color="#59729F"/>
</linearGradient>
<linearGradient id="paint1_linear_3356_48840" x1="434" y1="0" x2="450.077" y2="39.0501" gradientUnits="userSpaceOnUse">
<stop stop-color="#98A2B3" stop-opacity="0.46"/>
<stop offset="1" stop-color="white" stop-opacity="0.07"/>
</linearGradient>
</defs>
</svg>
